<?xml version="1.0" encoding="iso-8859-1"?>
<!-- Generator: Adobe Illustrator 19.0.0, SVG Export Plug-In . SVG Version: 6.00 Build 0)  -->
<svg version="1.1" id="Layer_1" xmlns="http://www.w3.org/2000/svg" xmlns:xlink="http://www.w3.org/1999/xlink" x="0px" y="0px"
	 viewBox="0 0 460.002 460.002" style="enable-background:new 0 0 460.002 460.002;" xml:space="preserve">
<g>
	<g>
		<g>
			<path d="M427.137,0H32.865C14.743,0,0,14.743,0,32.865v394.272c0,18.122,14.743,32.865,32.865,32.865h394.272
				c18.122,0,32.865-14.743,32.865-32.865V32.865C460.002,14.743,445.259,0,427.137,0z M430.002,427.137
				c0,1.58-1.285,2.865-2.865,2.865H32.865c-1.58,0-2.865-1.285-2.865-2.865V32.865C30,31.285,31.285,30,32.865,30h394.272
				c1.58,0,2.865,1.285,2.865,2.865V427.137z"/>
			<path d="M109.153,123.001H256.85c8.284,0,15-6.716,15-15s-6.716-15-15-15H109.153c-8.284,0-15,6.716-15,15
				S100.869,123.001,109.153,123.001z"/>
			<path d="M350.85,215.001H109.153c-8.284,0-15,6.716-15,15s6.716,15,15,15H350.85c8.284,0,15-6.716,15-15
				S359.134,215.001,350.85,215.001z"/>
			<path d="M350.85,337.001H109.153c-8.284,0-15,6.716-15,15s6.716,15,15,15H350.85c8.284,0,15-6.716,15-15
				S359.134,337.001,350.85,337.001z"/>
		</g>
	</g>
</g>
<g>
</g>
<g>
</g>
<g>
</g>
<g>
</g>
<g>
</g>
<g>
</g>
<g>
</g>
<g>
</g>
<g>
</g>
<g>
</g>
<g>
</g>
<g>
</g>
<g>
</g>
<g>
</g>
<g>
</g>
</svg>
