<?xml version="1.0" encoding="iso-8859-1"?>
<!-- Generator: Adobe Illustrator 19.0.0, SVG Export Plug-In . SVG Version: 6.00 Build 0)  -->
<svg version="1.1" id="Layer_1" xmlns="http://www.w3.org/2000/svg" xmlns:xlink="http://www.w3.org/1999/xlink" x="0px" y="0px"
	 viewBox="0 0 458.001 458.001" style="enable-background:new 0 0 458.001 458.001;" xml:space="preserve">
<g>
	<g>
		<path d="M308.497,0H149.505c-8.284,0-15,6.716-15,15v428.001c0,5.6,3.12,10.735,8.092,13.314
			c4.971,2.579,10.966,2.175,15.545-1.051l70.859-49.9l70.86,49.901c2.576,1.814,5.6,2.736,8.638,2.736
			c2.362,0,4.732-0.558,6.906-1.686c4.972-2.579,8.092-7.713,8.092-13.314V15C323.497,6.716,316.781,0,308.497,0z M293.497,414.092
			l-55.859-39.337c-2.59-1.824-5.614-2.736-8.637-2.736s-6.046,0.912-8.637,2.736l-55.859,39.337V30h128.992V414.092z"/>
	</g>
</g>
<g>
</g>
<g>
</g>
<g>
</g>
<g>
</g>
<g>
</g>
<g>
</g>
<g>
</g>
<g>
</g>
<g>
</g>
<g>
</g>
<g>
</g>
<g>
</g>
<g>
</g>
<g>
</g>
<g>
</g>
</svg>
